<?xml version="1.0" encoding="UTF-8" standalone="no"?>
<!-- Created with Inkscape (http://www.inkscape.org/) -->

<svg
   width="1200mm"
   height="630mm"
   viewBox="0 0 1200 630"
   version="1.1"
   id="svg5"
   inkscape:version="1.2.2 (b0a8486541, 2022-12-01)"
   sodipodi:docname="og.svg"
   xmlns:inkscape="http://www.inkscape.org/namespaces/inkscape"
   xmlns:sodipodi="http://sodipodi.sourceforge.net/DTD/sodipodi-0.dtd"
   xmlns:xlink="http://www.w3.org/1999/xlink"
   xmlns="http://www.w3.org/2000/svg"
   xmlns:svg="http://www.w3.org/2000/svg">
  <sodipodi:namedview
     id="namedview7"
     pagecolor="#505050"
     bordercolor="#ffffff"
     borderopacity="1"
     inkscape:showpageshadow="0"
     inkscape:pageopacity="0"
     inkscape:pagecheckerboard="1"
     inkscape:deskcolor="#505050"
     inkscape:document-units="mm"
     showgrid="false"
     inkscape:zoom="0.20920419"
     inkscape:cx="2344.5993"
     inkscape:cy="1338.4053"
     inkscape:window-width="1900"
     inkscape:window-height="981"
     inkscape:window-x="10"
     inkscape:window-y="48"
     inkscape:window-maximized="1"
     inkscape:current-layer="layer1" />
  <defs
     id="defs2">
    <linearGradient
       inkscape:collect="always"
       id="linearGradient1676">
      <stop
         style="stop-color:#ffffff;stop-opacity:1;"
         offset="0"
         id="stop1672" />
      <stop
         style="stop-color:#8d8a8a;stop-opacity:1;"
         offset="1"
         id="stop1674" />
    </linearGradient>
    <filter
       inkscape:menu-tooltip="Pressed metal with a rolled edge"
       inkscape:menu="Bevels"
       inkscape:label="Pressed Steel"
       style="color-interpolation-filters:sRGB;"
       id="filter1541"
       x="-0.01400998"
       y="-0.022549519"
       width="1.02802"
       height="1.045099">
      <feGaussianBlur
         result="result1"
         stdDeviation="3"
         id="feGaussianBlur1519" />
      <feBlend
         in2="result1"
         result="result5"
         mode="multiply"
         in="result1"
         id="feBlend1521" />
      <feGaussianBlur
         in="result5"
         result="result6"
         stdDeviation="1"
         id="feGaussianBlur1523" />
      <feComposite
         result="result8"
         in2="result5"
         in="result6"
         operator="xor"
         id="feComposite1525" />
      <feComposite
         in="result6"
         result="fbSourceGraphic"
         operator="xor"
         in2="result8"
         id="feComposite1527" />
      <feSpecularLighting
         in="fbSourceGraphic"
         result="result1"
         lighting-color="rgb(255,255,255)"
         surfaceScale="2"
         specularConstant="2.2"
         specularExponent="55"
         id="feSpecularLighting1531">
        <fePointLight
           x="-5000"
           y="-10000"
           z="20000"
           id="fePointLight1529" />
      </feSpecularLighting>
      <feComposite
         in2="fbSourceGraphic"
         in="result1"
         result="result2"
         operator="in"
         id="feComposite1533" />
      <feComposite
         in="fbSourceGraphic"
         result="result4"
         operator="arithmetic"
         k2="2"
         k3="1"
         in2="result2"
         id="feComposite1535" />
      <feComposite
         in2="result4"
         in="result4"
         operator="in"
         result="result91"
         id="feComposite1537" />
      <feBlend
         mode="darken"
         in2="result91"
         id="feBlend1539" />
    </filter>
    <linearGradient
       inkscape:collect="always"
       xlink:href="#linearGradient1676"
       id="linearGradient1678"
       x1="617.52722"
       y1="318.64465"
       x2="657.84027"
       y2="630"
       gradientUnits="userSpaceOnUse" />
  </defs>
  <g
     inkscape:label="Layer 1"
     inkscape:groupmode="layer"
     id="layer1">
    <rect
       style="fill:url(#linearGradient1678);fill-opacity:1;stroke:none;stroke-width:9.61001;stroke-dasharray:none;paint-order:stroke fill markers"
       id="rect1595"
       width="1200"
       height="630"
       x="0"
       y="0"
       ry="65.391243" />
    <path
       d="m 421.95893,99.546028 -22.35691,39.661802 53.05885,93.65644 -193.74882,23.30105 c 54.89918,24.23475 63.29423,27.60486 117.9579,50.76627 l 59.40725,-6.89861 -43.36538,-21.2002 80.13434,-9.62888 14.94352,26.62739 -37.6339,4.66854 -87.35183,52.61493 145.34184,-21.01262 11.19201,19.94553 -229.48613,36.04784 107.38698,41.37082 -55.79538,6.91945 -71.32246,46.21027 206.12047,-24.14514 121.3947,44.54919 89.32762,-0.83367 -127.22204,-54.00299 126.10701,-15.65213 -68.52133,-113.86667 24.01175,-2.98037 71.42875,110.1235 57.63574,-27.22138 87.5894,126.70934 2.2926,-62.37302 -54.6491,-80.96176 138.3015,-65.31171 c -87.7457,-17.84051 -176.5169,-34.06579 -263.96876,-52.05012 l 4.68939,6.9403 -24.12429,2.98036 -16.71507,-25.78955 87.38518,-12.9427 -119.83782,-73.33994 -52.32523,6.41925 63.24421,43.67591 -64.14249,7.71144 -41.54172,-69.02779 -20.97094,40.6622 20.61246,33.40303 -22.41736,2.68859 z m 179.48684,154.209992 16.81927,25.92918 -22.44445,2.79279 -15.73551,-26.14385 z m -63.25046,7.60722 15.81886,26.28559 -24.73495,3.06373 -14.88099,-26.494 z m 170.82501,45.87055 39.81186,58.97583 -21.86297,10.31665 -42.94437,-66.20582 z m 55.28056,13.0886 57.6316,11.35874 -37.882,17.8822 z m -188.56963,3.41805 46.798,77.78131 L 480.95351,419.09132 436.2105,402.66804 580.68116,382.264 549.63533,326.96674 Z"
       color="#000000"
       fill="#ffffff"
       stroke="#03ddf9"
       stroke-width="10.3104"
       style="paint-order:stroke fill markers;stroke-width:9.61;stroke-dasharray:none;stroke:none;fill-opacity:1;fill:#242424;filter:url(#filter1541)"
       id="path182" />
  </g>
</svg>
