<svg width="48" height="48" version="1.1" viewBox="0 0 12.7 12.7" xmlns="http://www.w3.org/2000/svg"><path d="m3.1009 2.4781-0.40543 0.71925 0.96219 1.6984-3.5135 0.42256c0.99556 0.4395 1.1478 0.50061 2.1391 0.92061l1.0773-0.1252-0.7864-0.38445 1.4532-0.17478 0.27119 0.48289-0.68247 0.084598-1.5841 0.95415 2.6357-0.38107 0.20291 0.36158-4.1616 0.65371 1.9474 0.75021-1.0118 0.12561-1.2934 0.83798 3.7379-0.43786 2.2014 0.80787 1.6199-0.016416-2.3071-0.97933 2.2869-0.28375-1.2426-2.0649 0.43544-0.053894 1.2953 1.997 1.0452-0.49363 1.5884 2.2978 0.041406-1.1311-0.99102-1.4682 2.508-1.1844c-1.5912-0.32366-3.201-0.61774-4.7869-0.94389l0.08492 0.12572-0.43748 0.054216-0.30328-0.46765 1.5847-0.23471-2.1732-1.33-0.94889 0.11653 1.1469 0.79204-1.1632 0.13989-0.75333-1.2518-0.38028 0.73739 0.37384 0.60576-0.40656 0.048848zm3.2549 2.7965 0.305 0.47023-0.40699 0.050458-0.28536-0.47409zm-1.147 0.13795 0.28686 0.47667-0.44854 0.055612-0.26968-0.48043zm3.0978 0.83181 0.72198 1.0695-0.39647 0.18723-0.77877-1.2006zm1.0025 0.23748 1.0451 0.20602-0.68698 0.32444zm-3.4196 0.061946 0.84866 1.4105-2.5674 0.31853-0.81141-0.2977 2.6199-0.36985-0.56298-1.0028z" color="#000000" fill="#fff" stroke="#03ddf9" stroke-width=".04947" style="paint-order:stroke fill markers"/></svg>